<svg width="16" height="15" viewBox="0 0 16 15" fill="none" xmlns="http://www.w3.org/2000/svg">
<g clip-path="url(#clip0)">
<g style="mix-blend-mode:luminosity">
<path d="M0.991745 5.70649L7.99795 14.8124L0.318641 9.1127C0.107952 8.95442 0.0179516 8.67891 0.0986412 8.43094L0.99071 5.70508L0.991745 5.70649Z" fill="#AAAAAA" style="mix-blend-mode:luminosity"/>
<path d="M5.07963 5.7041L8.00067 14.8103L7.99791 14.8113L0.991699 5.70548L0.993768 5.7041H5.07963Z" fill="#888888" style="mix-blend-mode:luminosity"/>
<path d="M10.922 5.7041L8.00093 14.8113L8.00062 14.8103L5.07959 5.7041H5.08269H10.9189H10.922Z" fill="#666666" style="mix-blend-mode:luminosity"/>
<path d="M15.0103 5.70548L8.00098 14.8113L10.922 5.7041H15.0082L15.0103 5.70548Z" fill="#888888" style="mix-blend-mode:luminosity"/>
<path d="M15.9034 8.43091C15.9806 8.67884 15.8941 8.95439 15.6803 9.11266L8.00098 14.8123L15.0103 5.70646L15.0113 5.70508L15.9034 8.43091Z" fill="#AAAAAA" style="mix-blend-mode:luminosity"/>
<path d="M13.2579 0.289646L15.0083 5.70482H10.922H10.9189L12.6724 0.289646C12.7713 0.0141285 13.1617 0.0141285 13.2579 0.289646Z" fill="#666666" style="mix-blend-mode:luminosity"/>
<path d="M5.08311 5.70482H5.08H0.994141L2.74449 0.289646C2.84345 0.0141285 3.2338 0.0141285 3.33 0.289646C3.33 0.289646 5.08 5.70482 5.08311 5.70482Z" fill="#666666" style="mix-blend-mode:luminosity"/>
</g>
</g>
<defs>
<clipPath id="clip0">
<rect width="16" height="14.8966" fill="white"/>
</clipPath>
</defs>
</svg>
