<svg width="16" height="16" viewBox="0 0 16 16" fill="none" xmlns="http://www.w3.org/2000/svg">
<path d="M14 2.5H2C0.8955 2.5 0 3.396 0 4.5V11C0 12.1045 0.8955 13 2 13H14C15.1045 13 16 12.1045 16 11V4.5C16 3.396 15.1045 2.5 14 2.5ZM1 5.125L4.4995 7.75L1 10.375V5.125ZM15 11C15 11.552 14.551 12 14 12H2C1.4485 12 1 11.552 1 11L4.916 8.0625L7.1 9.701C7.3665 9.9 7.683 10.001 8 10.001C8.3165 10.001 8.633 9.9005 8.8995 9.701L11.084 8.0625L15 11ZM15 10.375L11.5 7.75L15 5.125V10.375ZM8.5995 9.301C8.425 9.432 8.218 9.501 8 9.501C7.782 9.501 7.5745 9.4315 7.4 9.301L5.3325 7.75L4.916 7.4375L1 4.5005V4.5C1 3.9485 1.4485 3.5 2 3.5H14C14.551 3.5 15 3.9485 15 4.5L8.5995 9.301Z" fill="#333333" fill-opacity="0.51"/>
</svg>
