<svg width="15" height="16" viewBox="0 0 15 16" fill="none" xmlns="http://www.w3.org/2000/svg">
<g clip-path="url(#clip0)">
<path d="M14.6068 9.59184C14.3874 10.7205 12.6419 11.9557 10.6371 12.1951C9.59173 12.3198 8.56247 12.4345 7.46493 12.3841C5.67001 12.3019 4.25369 11.9557 4.25369 11.9557C4.25369 12.1304 4.26446 12.2968 4.28601 12.4524C4.51936 14.2238 6.04249 14.3299 7.48527 14.3794C8.9415 14.4292 10.2382 14.0204 10.2382 14.0204L10.298 15.3369C10.298 15.3369 9.27942 15.8838 7.46493 15.9844C6.46437 16.0394 5.22201 15.9592 3.775 15.5762C0.636686 14.7456 0.0969679 11.4003 0.0143852 8.00596C-0.0107861 6.99815 0.00473049 6.04785 0.00473049 5.25305C0.00473049 1.78217 2.27886 0.764795 2.27886 0.764795C3.42553 0.23818 5.39312 0.0167234 7.43864 0H7.48889C9.53441 0.0167234 11.5033 0.23818 12.6499 0.764795C12.6499 0.764795 14.9239 1.78217 14.9239 5.25305C14.9239 5.25305 14.9525 7.81389 14.6068 9.59184Z" fill="#7a7a7a"/>
<path d="M14.6068 9.59184C14.3874 10.7205 12.6419 11.9557 10.6371 12.1951C9.59173 12.3198 8.56247 12.4345 7.46493 12.3841C5.67001 12.3019 4.25369 11.9557 4.25369 11.9557C4.25369 12.1304 4.26446 12.2968 4.28601 12.4524C4.51936 14.2238 6.04249 14.3299 7.48527 14.3794C8.9415 14.4292 10.2382 14.0204 10.2382 14.0204L10.298 15.3369C10.298 15.3369 9.27942 15.8838 7.46493 15.9844C6.46437 16.0394 5.22201 15.9592 3.775 15.5762C0.636686 14.7456 0.0969679 11.4003 0.0143852 8.00596C-0.0107861 6.99815 0.00473049 6.04785 0.00473049 5.25305C0.00473049 1.78217 2.27886 0.764795 2.27886 0.764795C3.42553 0.23818 5.39312 0.0167234 7.43864 0H7.48889C9.53441 0.0167234 11.5033 0.23818 12.6499 0.764795C12.6499 0.764795 14.9239 1.78217 14.9239 5.25305C14.9239 5.25305 14.9525 7.81389 14.6068 9.59184Z" fill="white" style="mix-blend-mode:color"/>
<path d="M12.2415 5.52235V9.72502H10.5765V5.64588C10.5765 4.786 10.2147 4.34955 9.49106 4.34955C8.69092 4.34955 8.2899 4.86729 8.2899 5.89104V8.12379H6.63471V5.89104C6.63471 4.86729 6.23361 4.34955 5.43347 4.34955C4.7098 4.34955 4.348 4.786 4.348 5.64588V9.72502H2.68298V5.52235C2.68298 4.66342 2.90168 3.98086 3.34097 3.47588C3.79397 2.9709 4.38722 2.71204 5.12366 2.71204C5.97569 2.71204 6.62092 3.03952 7.04754 3.69458L7.46227 4.38981L7.87708 3.69458C8.30361 3.03952 8.94884 2.71204 9.80096 2.71204C10.5373 2.71204 11.1306 2.9709 11.5836 3.47588C12.0229 3.98086 12.2415 4.66342 12.2415 5.52235Z" fill="white"/>
</g>
<defs>
<clipPath id="clip0">
<rect width="14.9245" height="16" fill="white"/>
</clipPath>
</defs>
</svg>
