<svg width="128" height="128" viewBox="0 0 128 128" fill="none" xmlns="http://www.w3.org/2000/svg">
<g style="mix-blend-mode:luminosity">
<path d="M13.188 51.3755L63.983 117.393L8.30795 76.0705C6.78045 74.923 6.12795 72.9255 6.71295 71.1277L13.1805 51.3652L13.188 51.3755Z" fill="#AAAAAA" style="mix-blend-mode:luminosity"/>
<path d="M42.8255 51.3662L64.003 117.386L63.983 117.394L13.188 51.3762L13.203 51.3662H42.8255Z" fill="#888888" style="mix-blend-mode:luminosity"/>
<path d="M85.1829 51.3662L64.0054 117.394L64.0032 117.386L42.8257 51.3662H42.8482H85.1607H85.1829Z" fill="#666666" style="mix-blend-mode:luminosity"/>
<path d="M114.823 51.3762L64.0049 117.394L85.1824 51.3662H114.807L114.823 51.3762Z" fill="#888888" style="mix-blend-mode:luminosity"/>
<path d="M121.297 71.1285C121.857 72.926 121.23 74.9237 119.68 76.0712L64.0049 117.394L114.823 51.3762L114.83 51.3662L121.297 71.1285Z" fill="#AAAAAA" style="mix-blend-mode:luminosity"/>
<path d="M102.118 12.1055L114.808 51.3655H85.1831H85.1606L97.8731 12.1055C98.5904 10.108 101.421 10.108 102.118 12.1055Z" fill="#666666" style="mix-blend-mode:luminosity"/>
<path d="M42.8476 51.3655H42.8251H13.2026L25.8926 12.1055C26.6101 10.108 29.4401 10.108 30.1376 12.1055C30.1376 12.1055 42.8251 51.3655 42.8476 51.3655Z" fill="#666666" style="mix-blend-mode:luminosity"/>
</g>
</svg>
